GIL12_fast2_RRA_states
nRows=4
nColumns=47

# SIMM Motion File Header:
name GIL12_fast2_RRA_states
datacolumns 47
datarows 4
otherdata 1
range 0.47167000000000031000 0.47317000000000031000
endheader
time	pelvis_tx	pelvis_ty	pelvis_tz	pelvis_tilt	pelvis_list	pelvis_rotation	hip_flexion_r	hip_adduction_r	hip_rotation_r	knee_angle_r	ankle_angle_r	subtalar_angle_r	mtp_angle_r	hip_flexion_l	hip_adduction_l	hip_rotation_l	knee_angle_l	ankle_angle_l	subtalar_angle_l	mtp_angle_l	lumbar_extension	lumbar_bending	lumbar_rotation	pelvis_tx_u	pelvis_ty_u	pelvis_tz_u	pelvis_tilt_u	pelvis_list_u	pelvis_rotation_u	hip_flexion_r_u	hip_adduction_r_u	hip_rotation_r_u	knee_angle_r_u	ankle_angle_r_u	subtalar_angle_r_u	mtp_angle_r_u	hip_flexion_l_u	hip_adduction_l_u	hip_rotation_l_u	knee_angle_l_u	ankle_angle_l_u	subtalar_angle_l_u	mtp_angle_l_u	lumbar_extension_u	lumbar_bending_u	lumbar_rotation_u
      0.47167000000000031000	      1.11725619969672100000	      0.64257332835906356000	     -0.28568638153159964000	      4.54428705122421570000	      2.30816948442477980000	     -4.64314477479117740000	    -27.55958223253490000000	     -6.03158619368898830000	     -7.58903216617354200000	    -23.76473842746527200000	     -7.88555158278294140000	      0.00000000000005521321	     -0.00000000000007249588	     28.72523966497971100000	     -1.13169946364181650000	     -4.35705163860329670000	    -24.83022367222896100000	     -6.61205847787072100000	     -0.00000000000000234277	     -0.00000000000000167827	    -23.18749570453069700000	     -8.89568135778896800000	      4.06909657878952480000	      1.64036054227800210000	      0.10628333668473428000	     -0.14694306681922609000	     20.60072756112147700000	     63.27828688840889300000	     21.00835056888467300000	    129.61808355435346000000	    -87.77168895538535800000	    -52.07774079311134600000	   -415.53118521380719000000	   -442.70836784131643000000	     -0.00000000000013413031	      0.00000000000078577889	    -31.76575263933612400000	     85.24352800120756500000	   -158.05250526913352000000	   -242.28986235902119000000	     84.89424140521295200000	      0.00000000000004998207	      0.00000000000000874048	    -35.38982461862562400000	    -95.55360074258828700000	    -36.59231511697503000000
      0.47217000000000031000	      1.11807609222998590000	      0.64262712798590760000	     -0.28575963112093217000	      4.55457934846744730000	      2.33991029236276530000	     -4.63275414833301100000	    -27.49430953803552300000	     -6.07564641840791440000	     -7.61529026556091890000	    -23.97282816246952600000	     -8.10665470817705370000	      0.00000000000005514527	     -0.00000000000007210254	     28.70900495072671900000	     -1.08906505988694620000	     -4.43606370000512040000	    -24.95081387687269400000	     -6.56886418594564430000	     -0.00000000000000231651	     -0.00000000000000167614	    -23.20518406617029700000	     -8.94358930138036180000	      4.05077244659177270000	      1.63920632225446130000	      0.10891330448478888000	     -0.14605086527243288000	     20.56779213483936200000	     63.68343526567533500000	     20.55303089004699400000	    131.47256923999635000000	    -88.46819678643575500000	    -52.95666997925365400000	   -416.82356149468058000000	   -441.68770647559876000000	     -0.00000000000013455629	      0.00000000000078488343	    -33.17452949038543900000	     85.29245410151081300000	   -157.98776169782190000000	   -240.06568468059922000000	     87.87739415492633600000	      0.00000000000004383540	     -0.00000000000000778219	    -35.36210737680834600000	    -96.07730912019671600000	    -36.70403221138875000000
      0.47267000000000031000	      1.11889540281555330000	      0.64268223980486916000	     -0.28583242796025660000	      4.56485421480471130000	      2.37185139799085310000	     -4.62259287702786280000	    -27.42810992748377100000	     -6.12005332680989960000	     -7.64199060972732270000	    -24.18155775831226600000	     -8.32722056417159880000	      0.00000000000005507924	     -0.00000000000007171613	     28.69206365571109500000	     -1.04640862573641960000	     -4.51503151844200980000	    -25.07028410278577000000	     -6.52418606880344320000	     -0.00000000000000229345	     -0.00000000000000167880	    -23.22285632569055700000	     -8.99175779563668160000	      4.03239274203652710000	      1.63803288279872720000	      0.11153211836931036000	     -0.14513204470413493000	     20.53108581297918500000	     64.07945245818700600000	     20.09091360185458400000	    133.32546805066147000000	    -89.15831977501945000000	    -53.84623834356286000000	   -418.09056034995257000000	   -440.55466070247007000000	     -0.00000000000012946835	      0.00000000000075930678	    -34.59218400267077700000	     85.33168241444380400000	   -157.87572617325208000000	   -237.80997983571126000000	     90.83062785187948400000	      0.00000000000007773945	     -0.00000000000002924465	    -35.32547348790955500000	    -96.59578867580988500000	    -36.81457683751840900000
      0.47317000000000031000	      1.11971412192408290000	      0.64273865826158350000	     -0.28590475877694194000	      4.57510980024794730000	      2.40398818261956440000	     -4.61266433333942680000	    -27.36098438277650800000	     -6.16480361175000620000	     -7.66913822023179750000	    -24.39091440263717600000	     -8.54719073266995190000	      0.00000000000005501580	     -0.00000000000007133801	     28.67441134081965600000	     -1.00373499309113410000	     -4.59393158112757850000	    -25.18861871652677900000	     -6.47803871442648570000	     -0.00000000000000225111	     -0.00000000000000169231	    -23.24050805255397400000	     -9.04018415307085380000	      4.01395804874537900000	      1.63684031186569380000	      0.11413987371185223000	     -0.14418689276182459000	     20.49057543400973800000	     64.46609585566901000000	     19.62220544948957000000	    135.17648883287146000000	    -89.84168303171782100000	    -54.74609906432725400000	   -419.33163976256958000000	   -439.30977686271763000000	     -0.00000000000012347115	      0.00000000000075506438	    -36.01839250017663100000	     85.36121641600216500000	   -157.71662128928068000000	   -235.52343180776589000000	     93.75291481551140300000	      0.00000000000009115752	     -0.00000000000005088854	    -35.27991733584641300000	    -97.10864563127563500000	    -36.92404752495294700000
